<?xml version="1.0" encoding="UTF-8" standalone="no"?>
<!-- Created with Inkscape (http://www.inkscape.org/) -->

<svg
   xmlns:osb="http://www.openswatchbook.org/uri/2009/osb"
   xmlns:dc="http://purl.org/dc/elements/1.1/"
   xmlns:cc="http://creativecommons.org/ns#"
   xmlns:rdf="http://www.w3.org/1999/02/22-rdf-syntax-ns#"
   xmlns:svg="http://www.w3.org/2000/svg"
   xmlns="http://www.w3.org/2000/svg"
   xmlns:sodipodi="http://sodipodi.sourceforge.net/DTD/sodipodi-0.dtd"
   xmlns:inkscape="http://www.inkscape.org/namespaces/inkscape"
   width="118.95471mm"
   height="108.31762mm"
   viewBox="0 0 421.49307 383.80259"
   id="svg4301"
   version="1.1"
   inkscape:version="0.91 r13725"
   sodipodi:docname="mapa.svg">
  <defs
     id="defs4303">
    <linearGradient
       id="linearGradient4163"
       osb:paint="solid">
      <stop
         style="stop-color:#ffff00;stop-opacity:1;"
         offset="0"
         id="stop4165" />
    </linearGradient>
  </defs>
  <sodipodi:namedview
     id="base"
     pagecolor="#ffffff"
     bordercolor="#666666"
     borderopacity="1.0"
     inkscape:pageopacity="0.0"
     inkscape:pageshadow="2"
     inkscape:zoom="5.6"
     inkscape:cx="233.36959"
     inkscape:cy="296.01234"
     inkscape:document-units="px"
     inkscape:current-layer="layer2"
     showgrid="false"
     fit-margin-top="0"
     fit-margin-left="0"
     fit-margin-right="0"
     fit-margin-bottom="0"
     inkscape:window-width="1600"
     inkscape:window-height="836"
     inkscape:window-x="0"
     inkscape:window-y="27"
     inkscape:window-maximized="1" />
  <metadata
     id="metadata4306">
    <rdf:RDF>
      <cc:Work
         rdf:about="">
        <dc:format>image/svg+xml</dc:format>
        <dc:type
           rdf:resource="http://purl.org/dc/dcmitype/StillImage" />
        <dc:title />
      </cc:Work>
    </rdf:RDF>
  </metadata>
  <g
     inkscape:label="Capa 1"
     inkscape:groupmode="layer"
     id="layer1"
     transform="translate(1107.8894,230.96766)">
    <text
       xml:space="preserve"
       style="font-style:normal;font-weight:normal;font-size:14.7662487px;line-height:125%;font-family:sans-serif;letter-spacing:0px;word-spacing:0px;fill:#000000;fill-opacity:1;stroke:none;stroke-width:1px;stroke-linecap:butt;stroke-linejoin:miter;stroke-opacity:1"
       x="-862.95636"
       y="-160.91585"
       id="text4175"
       sodipodi:linespacing="125%"
       transform="scale(0.99723178,1.0027759)"><tspan
         sodipodi:role="line"
         id="tspan4177"
         x="-862.95636"
         y="-160.91585">Funza</tspan></text>
    <text
       xml:space="preserve"
       style="font-style:normal;font-weight:normal;font-size:14.7662487px;line-height:125%;font-family:sans-serif;letter-spacing:0px;word-spacing:0px;fill:#000000;fill-opacity:1;stroke:none;stroke-width:1px;stroke-linecap:butt;stroke-linejoin:miter;stroke-opacity:1"
       x="-1017.09"
       y="-207.65317"
       id="text4179"
       sodipodi:linespacing="125%"
       transform="scale(0.99723178,1.0027759)"><tspan
         sodipodi:role="line"
         id="tspan4181"
         x="-1017.09"
         y="-207.65317">Madrid</tspan></text>
    <text
       xml:space="preserve"
       style="font-style:normal;font-weight:normal;font-size:14.7662487px;line-height:125%;font-family:sans-serif;letter-spacing:0px;word-spacing:0px;fill:#000000;fill-opacity:1;stroke:none;stroke-width:1px;stroke-linecap:butt;stroke-linejoin:miter;stroke-opacity:1"
       x="-1070.7882"
       y="133.42976"
       id="text4183"
       sodipodi:linespacing="125%"
       transform="scale(0.99723178,1.0027759)"><tspan
         sodipodi:role="line"
         id="tspan4185"
         x="-1070.7882"
         y="133.42976">fute</tspan></text>
    <text
       xml:space="preserve"
       style="font-style:normal;font-weight:normal;font-size:14.7662487px;line-height:125%;font-family:sans-serif;letter-spacing:0px;word-spacing:0px;fill:#000000;fill-opacity:1;stroke:none;stroke-width:1px;stroke-linecap:butt;stroke-linejoin:miter;stroke-opacity:1"
       x="-805.28052"
       y="149.34035"
       id="text4187"
       sodipodi:linespacing="125%"
       transform="scale(0.99723178,1.0027759)"><tspan
         sodipodi:role="line"
         id="tspan4189"
         x="-805.28052"
         y="149.34035">Bogota</tspan></text>
    <path
       style="fill:none;fill-rule:evenodd;stroke:#808000;stroke-width:1.87039149;stroke-linecap:butt;stroke-linejoin:miter;stroke-miterlimit:4;stroke-dasharray:7.48156603, 1.87039151;stroke-dashoffset:0;stroke-opacity:1"
       d="m -1040.0783,-227.83084 59.52017,31.5673 54.54119,48.8614 m 66.83859,45.86989 33.31888,0 54.5412,-8.97455 51.56623,17.949092 32.72471,29.91513"
       id="path4195"
       inkscape:connector-curvature="0"
       sodipodi:nodetypes="cccccccc" />
    <path
       style="fill:none;fill-rule:evenodd;stroke:#808000;stroke-width:1.96883321;stroke-linecap:butt;stroke-linejoin:miter;stroke-miterlimit:4;stroke-dasharray:5.9064995, 1.96883317;stroke-dashoffset:0;stroke-opacity:1"
       d="m -1106.1292,78.855532 29.3802,-17.84886 12.8916,-7.97737 6.9416,-21.93777 0,-31.90949049 9.9166,-10.96887951 43.6329,-13.9604 14.8749,-10.96888 8.92492,-23.93211 19.83316,-14.95758 19.83316,-23.93211 8.73089,-7.252572 m 65.83108,-26.02571 2.78737,-1.62271 22.80814,-12.96323 43.63296,-35.89816 23.79979,-22.93495 24.31022,-24.03233"
       id="path4197"
       inkscape:connector-curvature="0"
       sodipodi:nodetypes="cccccccccccccccccc" />
    <path
       style="fill:none;fill-rule:evenodd;stroke:#808000;stroke-width:1.96883321;stroke-linecap:butt;stroke-linejoin:miter;stroke-miterlimit:4;stroke-dasharray:7.87533266, 1.96883317;stroke-dashoffset:0;stroke-opacity:1"
       d="m -930.35097,-139.29627 3.15543,-46.36076 -7.01208,-13.04447 -6.66147,-16.21745 -5.96028,-10.5766 -9.46631,-4.58319"
       id="path4199"
       inkscape:connector-curvature="0"
       sodipodi:nodetypes="cccccc" />
    <path
       style="fill:none;fill-rule:evenodd;stroke:#2b2200;stroke-width:1.96883321;stroke-linecap:butt;stroke-linejoin:miter;stroke-miterlimit:4;stroke-dasharray:5.9064995, 1.96883317;stroke-dashoffset:0;stroke-opacity:1"
       d="m -874.45072,-146.40497 c 1.23958,-0.24929 14.87488,-6.9802 16.11445,-7.47878 1.23957,-0.49859 15.3707,-4.48728 15.3707,-4.48728 l 14.13113,-0.99716 2.72706,0.49858 1.23957,-1.49576"
       id="path4220"
       inkscape:connector-curvature="0"
       sodipodi:nodetypes="cscccc" />
    <text
       xml:space="preserve"
       style="font-style:normal;font-weight:normal;font-size:9.67819405px;line-height:125%;font-family:sans-serif;letter-spacing:0px;word-spacing:0px;fill:#000000;fill-opacity:1;stroke:none;stroke-width:1px;stroke-linecap:butt;stroke-linejoin:miter;stroke-opacity:1"
       x="-983.4422"
       y="-56.508873"
       id="text4222"
       sodipodi:linespacing="125%"
       transform="scale(0.99113558,1.0089437)"><tspan
         sodipodi:role="line"
         id="tspan4224"
         x="-983.4422"
         y="-56.508873">Mondoñedo</tspan></text>
    <text
       xml:space="preserve"
       style="font-style:normal;font-weight:normal;font-size:14.7662487px;line-height:125%;font-family:sans-serif;letter-spacing:0px;word-spacing:0px;fill:#000000;fill-opacity:1;stroke:none;stroke-width:1px;stroke-linecap:butt;stroke-linejoin:miter;stroke-opacity:1"
       x="-1110.0675"
       y="-105.22884"
       id="text4226"
       sodipodi:linespacing="125%"
       transform="scale(0.99723178,1.0027759)"><tspan
         sodipodi:role="line"
         id="tspan4228"
         x="-1110.0675"
         y="-105.22884">La Herrera</tspan></text>
    <path
       style="fill:#00efff;fill-opacity:1;fill-rule:evenodd;stroke:#0088ff;stroke-width:0.9844166px;stroke-linecap:butt;stroke-linejoin:miter;stroke-opacity:0.83497536"
       d="m -1027.6619,-88.319728 -2.975,-5.98304 -7.4374,-0.49859 -4.4625,4.48728 -0.2479,4.98585 3.4708,4.23798 c 0,0 3.7187,1.74505 4.9583,1.74505 1.2396,0 7.6854,1.24647 8.677,1.24647 0.9917,0 6.6937,-0.99717 6.6937,-0.99717 l 6.4458,-5.73374 -3.4708,-4.23798 -7.1895,0.49859 z"
       id="path4230"
       inkscape:connector-curvature="0" />
    <path
       style="fill:none;fill-rule:evenodd;stroke:#000000;stroke-width:3.83922482;stroke-linecap:butt;stroke-linejoin:miter;stroke-miterlimit:4;stroke-dasharray:none;stroke-dashoffset:0;stroke-opacity:1"
       d="m -1030.141,121.83413 -1.9834,-7.97737 -17.8498,-25.926458 c 0,0 -1.9833,-17.94909 -0.9917,-21.93778 0.9917,-3.98868 0.9917,-11.96605 0.9917,-11.96605 0,0 -4.9583,-16.95191 -5.95,-21.93777 -0.9916,-4.98586 -1.9833,-17.94908 -1.9833,-17.94908 l 1.9833,-12.9632305 c 0,0 -1.9833,-7.97737 -6.9416,-12.9632295 -4.9583,-4.98586 -8.9249,-10.96888 -8.9249,-10.96888 l 4.9583,-15.95474 c 0,0 1.9833,-7.97737 1.9833,-13.9604 0,-5.98304 -7.9332,-20.9406 -9.9166,-27.9208 -1.9833,-6.9802 -7.9332,-15.95474 -10.9082,-22.934942 -2.975,-6.9802 -10.9082,-30.91231 -10.9082,-30.91231 l -8.925,-15.95474 4.9583,-4.98586 15.8666,-2.99152 21.8164,14.95758 c 0,0 -3.9666,5.98302 4.9583,11.96605 8.925,5.98303 12.8916,8.97454 17.8499,10.96889 4.9583,1.99434 9.9166,2.99151 16.8582,7.97737 6.9416,4.98585 25.78307,23.932112 25.78307,23.932112 0,0 0,10.96889 7.93327,15.95474 7.93326,4.98586 12.89156,6.9802 12.89156,6.9802 l 8.92492,-4.98586 c 0,0 1.98332,-6.98019 1.98332,-11.96606 0,-4.98585 -0.99167,-9.9717 -0.99167,-14.95756 0,-4.985862 -0.99165,-13.960402 4.9583,-19.943432 5.94995,-5.98303 0,-13.9604 0,-18.94625 0,-4.98587 -3.96663,-12.96324 0,-16.95192 3.96663,-3.98869 8.92492,-8.97454 12.89155,-9.97171 3.96664,-0.99718 1.98332,-10.96889 1.98332,-10.96889 0,0 -16.85819,-4.98585 -4.95829,-6.9802 11.89989,-1.99433 16.85818,-3.98868 23.79979,-10.96888 6.94161,-6.9802 14.87488,-17.94908 18.84151,-21.93777 3.96663,-3.98868 8.92492,-4.98586 8.92492,-4.98586 l 13.88322,5.98303 -3.96664,23.93211 8.92492,7.97737 5.94996,13.96041 7.93326,12.96322 c 0,0 3.96664,9.97172 6.94161,15.95474 2.97497,5.98303 7.93327,16.95191 7.93327,16.95191 l 15.86653,5.98303 23.79979,3.98869 18.84151,7.97737 31.73306,0 13.8832,-2.99152 10.90825,6.980202 6.9416,11.96606 6.94161,11.96605 -2.23123,4.98586 -6.6937,4.48727 -2.23122,4.98586 -6.44578,8.97455 -1.48749,5.73372 2.47915,4.73657 8.92492,5.48445 1.98332,-5.48445 c 0,0 5.2062,0.74788 6.19786,-1.24646 0.99166,-1.99435 6.19787,-8.22666 6.19787,-8.22666 l 1.98331,6.9802 0,4.48726 c 0,0 4.46246,-1.24646 5.70204,-1.99434 1.23957,-0.74788 7.43743,-4.23798 7.43743,-4.23798 l 3.22289,-3.24081 -5.45412,-3.49009 c 0,0 -3.4708,-1.99435 -1.23957,-4.73657 2.23123,-2.74221 6.19786,-4.98586 6.19786,-4.98586 l 5.45412,4.98586 c 0,0 2.97497,6.48162 2.97497,7.72808 0,1.24647 0.99166,4.98586 -0.74374,6.23232 -1.7354,1.24646 -12.14781,5.48444 -12.14781,5.48444 l -4.21455,6.73091 -5.45412,3.4901 -9.42075,-4.73656 -4.71038,2.49292 -1.7354,5.73374 c 0,0 2.23123,4.23798 3.4708,4.23798 1.23957,0 11.15616,1.74505 11.15616,1.74505 l 9.17284,2.99151 5.45412,1.74505 0.24791,4.9858595 2.47915,2.24363 -1.48749,2.74222 -6.19786,0.2493 -3.47081,10.71959 -8.92492,-2.24363 -1.7354,6.7309005 -9.17284,4.48727 c 0,0 -6.19786,-2.49293 -8.4291,-1.74504 -2.23123,0.74787 -8.42909,4.73655 -8.42909,4.73655 0,0 -7.68535,-4.23798 -12.14781,5.98304 -4.46246,10.221 -13.88322,14.20969 -13.88322,14.20969 l -2.47914,-5.73374 5.70204,-8.72525 -19.58525,0.2493 c 0,0 -4.71038,-7.97737 -6.69369,-6.9802 -1.98332,0.99716 -18.09777,14.20968 -19.08943,14.70827 -0.99165,0.49858 -8.92492,7.72808 -8.92492,7.72808 l -5.13262,0.92591 -8.41449,-0.70511 4.20724,11.28171 -8.4145,5.64086 -11.92054,1.41021 -4.20724,-7.05107 -14.72538,-4.23064 -7.01208,3.52553 14.72537,13.39702 2.80484,11.98682 c 0,0 -10.51813,2.11532 -7.01208,6.34596 3.50604,4.23064 7.71328,11.2817 7.71328,11.2817 l -19.63383,-6.34596 -13.32295,-9.87149 c 0,0 -7.01208,0.70511 -11.21933,1.41021 -4.20725,0.70511 -20.33503,0.70511 -20.33503,0.70511 l -7.01209,4.93575 -15.42658,17.627658 -5.60966,8.46128 -12.62176,-11.986808 -7.71329,-4.23064 -14.02416,8.461278 c 0,0 -8.4145,7.05106 -8.4145,9.8715 0,2.82042 -12.62177,9.16638 -12.62177,9.16638 l -15.4265,0.70511 z"
       id="path4173"
       inkscape:connector-curvature="0" />
    <path
       style="fill:#00efff;fill-opacity:1;fill-rule:evenodd;stroke:#0088ff;stroke-width:0.9844166px;stroke-linecap:butt;stroke-linejoin:miter;stroke-opacity:0.83497536"
       d="m -881.7382,-128.39065 15.96449,13.89516 10.41242,4.23798 9.17283,-4.23798 13.38739,-3.73939 14.87486,-0.99717 12.89157,-3.7394 8.92492,-1.49575 7.43744,-5.23514 c 0,0 6.44577,-2.99152 7.68535,-3.49011 1.23957,-0.49859 10.16449,-2.24363 10.16449,-2.24363 l 5.70204,-3.98869 -0.24792,-9.47313 -2.97498,-3.98868 8.18118,-0.99717 c 0,0 4.21455,6.73091 4.21455,7.97737 0,1.24646 1.48749,7.97737 1.48749,9.22383 0,1.24647 -1.7354,9.22384 -1.7354,9.22384 l -8.92492,0 -12.89157,-2.99152 c 0,0 -9.66866,3.4901 -10.41241,4.48728 -0.74374,0.99716 -8.92492,5.73372 -9.66866,6.7309 -0.74374,0.99717 -11.89989,3.2408 -11.89989,3.2408 l -11.65199,1.49576 -11.65198,1.24647 -10.66033,1.99434 c 0,0 -8.18118,0.74788 -9.17284,1.49576 -0.99165,0.74788 -2.97497,1.99434 -2.97497,1.99434 l -8.67701,-1.99434 -6.44577,-5.98303 -3.71873,-5.23515 z"
       id="path4232"
       inkscape:connector-curvature="0"
       sodipodi:nodetypes="cccccccccscccccsscccssccccsccccc" />
    <g
       id="g4164"
       style="stroke:#808000;stroke-width:1.60000002;stroke-miterlimit:4;stroke-dasharray:6.4, 1.6;stroke-dashoffset:0"
       transform="matrix(0.98169147,0,0,0.98714926,-1189.798,-439.35938)">
      <path
         inkscape:connector-curvature="0"
         id="path4253"
         d="m 265.10191,335.09076 7.1342,-5.3033 c 0,0 2.52538,-3.09359 2.84106,-3.21986 0.31567,-0.12627 3.59866,-2.39911 4.29314,-2.65165 0.69448,-0.25254 6.12405,-4.16688 7.00794,-4.29315 0.88388,-0.12627 7.57614,-6.81853 8.01808,-7.32361 0.44194,-0.50507 5.1139,-4.79822 5.68211,-4.92449 0.56821,-0.12627 7.82868,-5.80838 8.20749,-5.99778 0.37881,-0.1894 5.17703,-3.34613 5.17703,-3.34613 l 2.90419,-1.45209 7.19734,-1.38896"
         style="fill:none;fill-rule:evenodd;stroke:#808000;stroke-width:1.60000002;stroke-linecap:butt;stroke-linejoin:miter;stroke-miterlimit:4;stroke-dasharray:6.4, 1.6;stroke-dashoffset:0;stroke-opacity:1" />
      <path
         inkscape:connector-curvature="0"
         id="path4255"
         d="m 269.52133,296.64183 5.61897,4.92449 8.83883,6.25032 23.80172,17.10946 7.19734,4.98763 21.00522,11.38742 -16.52267,-6.84173 -8.7757,-3.283 -4.60882,-0.0631 -9.97525,-0.44195 c 0,0 -9.78586,-1.45209 -10.29093,-1.57836 -0.50508,-0.12627 -4.04061,-1.13642 -4.29315,-1.19956 -0.25254,-0.0631 -6.06092,-1.64149 -6.37659,-1.8309 -0.31567,-0.1894 -3.15673,-2.71478 -3.34613,-2.96732 -0.1894,-0.25254 -3.283,-5.93465 -3.4724,-6.50286 -0.1894,-0.56821 -2.84105,-8.83883 -2.84105,-8.83883 l -0.82075,-2.84106 c 0,0 -0.25254,-4.54568 -0.31568,-4.92449 -0.0631,-0.37881 0.25941,-4.07576 0.25941,-4.07576 l -1.20642,-4.57367"
         style="fill:none;fill-rule:evenodd;stroke:#808000;stroke-width:1.60000002;stroke-linecap:butt;stroke-linejoin:miter;stroke-miterlimit:4;stroke-dasharray:6.4, 1.6;stroke-dashoffset:0;stroke-opacity:1"
         sodipodi:nodetypes="ccccccccccsccssccccc" />
      <path
         inkscape:connector-curvature="0"
         id="path4257"
         d="m 301.40427,330.60821 4.29314,-2.02031 5.17704,-3.15672 c 0,0 6.06091,-4.41942 6.69226,-4.67196 0.63134,-0.25254 6.69226,-4.54568 6.69226,-4.54568 l 4.79822,-3.91434 1.13642,-1.01016"
         style="fill:none;fill-rule:evenodd;stroke:#808000;stroke-width:1.60000002;stroke-linecap:butt;stroke-linejoin:miter;stroke-miterlimit:4;stroke-dasharray:6.4, 1.6;stroke-dashoffset:0;stroke-opacity:1" />
    </g>
    <rect
       style="opacity:1;fill:none;fill-opacity:0.40740739;fill-rule:nonzero;stroke:#d45500;stroke-width:0.88597488;stroke-linecap:round;stroke-linejoin:round;stroke-miterlimit:4;stroke-dasharray:1.77194985, 0.88597492;stroke-dashoffset:0;stroke-opacity:1"
       id="rect4245"
       width="63.45285"
       height="40.579483"
       x="-931.37744"
       y="-144.70895" />
    <rect
       id="punto" />
    <text
       xml:space="preserve"
       style="font-style:normal;font-weight:normal;font-size:11.00165939px;line-height:125%;font-family:sans-serif;letter-spacing:0px;word-spacing:0px;fill:#000000;fill-opacity:1;stroke:none;stroke-width:1px;stroke-linecap:butt;stroke-linejoin:miter;stroke-opacity:1"
       x="-753.50836"
       y="-83.19857"
       id="text4191"
       sodipodi:linespacing="125%"
       transform="scale(0.98555326,1.0146585)"><tspan
         sodipodi:role="line"
         id="tspan4193"
         x="-753.50836"
         y="-83.19857">Fontibon</tspan></text>
  </g>
  <g
     inkscape:groupmode="layer"
     id="layer2"
     inkscape:label="puntos">
    <circle
       id="circle37" />
  </g>
</svg>
