<?xml version="1.0" encoding="UTF-8" standalone="no"?>
<!-- Created with Inkscape (http://www.inkscape.org/) -->

<?xml-stylesheet type="text/css" href="../css/estilos.css"?><svg
   xmlns:dc="http://purl.org/dc/elements/1.1/"
   xmlns:cc="http://creativecommons.org/ns#"
   xmlns:rdf="http://www.w3.org/1999/02/22-rdf-syntax-ns#"
   xmlns:svg="http://www.w3.org/2000/svg"
   xmlns="http://www.w3.org/2000/svg"
   xmlns:sodipodi="http://sodipodi.sourceforge.net/DTD/sodipodi-0.dtd"
   xmlns:inkscape="http://www.inkscape.org/namespaces/inkscape"
   width="100%"
   height="100%"
   viewBox="0 0 490.46802 398.78622"
   id="svg2"
   version="1.1"
   inkscape:version="0.91 r13725"
   sodipodi:docname="mapa.svg">
  <defs
     id="defs4" />
  <sodipodi:namedview
     id="base"
     pagecolor="#ffffff"
     bordercolor="#666666"
     borderopacity="1.0"
     inkscape:pageopacity="0.0"
     inkscape:pageshadow="2"
     inkscape:zoom="7.9195959"
     inkscape:cx="207.79451"
     inkscape:cy="280.49289"
     inkscape:document-units="px"
     inkscape:current-layer="layer1"
     showgrid="false"
     inkscape:window-width="1600"
     inkscape:window-height="836"
     inkscape:window-x="0"
     inkscape:window-y="27"
     inkscape:window-maximized="1"
     fit-margin-top="0"
     fit-margin-left="0"
     fit-margin-right="0"
     fit-margin-bottom="0" />
  <metadata
     id="metadata7">
    <rdf:RDF>
      <cc:Work
         rdf:about="">
        <dc:format>image/svg+xml</dc:format>
        <dc:type
           rdf:resource="http://purl.org/dc/dcmitype/StillImage" />
        <dc:title />
      </cc:Work>
    </rdf:RDF>
  </metadata>
  <g
     inkscape:label="Capa 1"
     inkscape:groupmode="layer"
     id="layer1"
     transform="translate(-83.438298,-201.11728)">
    <text
       xml:space="preserve"
       style="font-style:normal;font-weight:normal;font-size:15px;line-height:125%;font-family:sans-serif;letter-spacing:0px;word-spacing:0px;fill:#000000;fill-opacity:1;stroke:none;stroke-width:1px;stroke-linecap:butt;stroke-linejoin:miter;stroke-opacity:1"
       x="335.37064"
       y="281.61581"
       id="text4175"
       sodipodi:linespacing="125%"><tspan
         sodipodi:role="line"
         id="tspan4177"
         x="335.37064"
         y="281.61581">Funza</tspan></text>
    <text
       xml:space="preserve"
       style="font-style:normal;font-weight:normal;font-size:15px;line-height:125%;font-family:sans-serif;letter-spacing:0px;word-spacing:0px;fill:#000000;fill-opacity:1;stroke:none;stroke-width:1px;stroke-linecap:butt;stroke-linejoin:miter;stroke-opacity:1"
       x="178.797"
       y="234.13864"
       id="text4179"
       sodipodi:linespacing="125%"><tspan
         sodipodi:role="line"
         id="tspan4181"
         x="178.797"
         y="234.13864">Madrid</tspan></text>
    <text
       xml:space="preserve"
       style="font-style:normal;font-weight:normal;font-size:15px;line-height:125%;font-family:sans-serif;letter-spacing:0px;word-spacing:0px;fill:#000000;fill-opacity:1;stroke:none;stroke-width:1px;stroke-linecap:butt;stroke-linejoin:miter;stroke-opacity:1"
       x="124.24876"
       y="580.62097"
       id="text4183"
       sodipodi:linespacing="125%"><tspan
         sodipodi:role="line"
         id="tspan4185"
         x="124.24876"
         y="580.62097">fute</tspan></text>
    <text
       xml:space="preserve"
       style="font-style:normal;font-weight:normal;font-size:15px;line-height:125%;font-family:sans-serif;letter-spacing:0px;word-spacing:0px;fill:#000000;fill-opacity:1;stroke:none;stroke-width:1px;stroke-linecap:butt;stroke-linejoin:miter;stroke-opacity:1"
       x="393.9595"
       y="596.78339"
       id="text4187"
       sodipodi:linespacing="125%"><tspan
         sodipodi:role="line"
         id="tspan4189"
         x="393.9595"
         y="596.78339">Bogota</tspan></text>
    <path
       style="fill:none;fill-rule:evenodd;stroke:#ffff00;stroke-width:1.89999998;stroke-linecap:butt;stroke-linejoin:miter;stroke-miterlimit:4;stroke-dasharray:7.6, 1.9;stroke-dashoffset:0;stroke-opacity:1"
       d="m 164.65486,219.99651 48.48733,26.26396 55.55839,49.49748 m 68.08513,46.46702 33.94027,0 55.55839,-9.09138 52.52794,18.18275 33.33503,30.30457 5.05076,24.24367 14.14214,21.2132 34.34519,17.17259 5.05076,10.10153"
       id="path4195"
       inkscape:connector-curvature="0"
       sodipodi:nodetypes="cccccccccccc" />
    <path
       style="fill:none;fill-rule:evenodd;stroke:#ffff00;stroke-width:2;stroke-linecap:butt;stroke-linejoin:miter;stroke-miterlimit:4;stroke-dasharray:6, 2;stroke-dashoffset:0;stroke-opacity:1"
       d="m 108.08632,514.96105 7.07107,-8.08122 13.13198,-8.08122 7.07107,-22.22336 0,-32.32488 10.10153,-11.11168 44.44671,-14.14213 15.15229,-11.11168 9.09137,-24.24366 20.20305,-15.15229 20.20305,-24.24366 8.89372,-7.34699 m 67.05882,-26.36451 2.83936,-1.64384 23.23351,-13.13198 44.44671,-36.36549 24.24366,-23.23351 33.33504,-34.34519"
       id="path4197"
       inkscape:connector-curvature="0"
       sodipodi:nodetypes="cccccccccccccccccc" />
    <path
       style="fill:none;fill-rule:evenodd;stroke:#ffff00;stroke-width:2;stroke-linecap:butt;stroke-linejoin:miter;stroke-miterlimit:4;stroke-dasharray:8, 2;stroke-dashoffset:0;stroke-opacity:1"
       d="M 264.28572,303.96934 267.5,257.00506 260.35714,243.79077 253.57143,227.3622 247.5,216.64792 l -9.64286,-4.64286"
       id="path4199"
       inkscape:connector-curvature="0"
       sodipodi:nodetypes="cccccc" />
    <path
       style="fill:none;fill-rule:evenodd;stroke:#ffff00;stroke-width:2;stroke-linecap:butt;stroke-linejoin:miter;stroke-miterlimit:4;stroke-dasharray:6, 2;stroke-dashoffset:0;stroke-opacity:1"
       d="m 321.22851,296.7681 c 1.26269,-0.25254 15.15229,-7.07107 16.41498,-7.57614 1.26269,-0.50508 15.65736,-4.54569 15.65736,-4.54569 l 14.39468,-1.01015 2.77792,0.50507 1.26269,-1.51523"
       id="path4220"
       inkscape:connector-curvature="0"
       sodipodi:nodetypes="cscccc" />
    <text
       xml:space="preserve"
       style="font-style:normal;font-weight:normal;font-size:9.83140087px;line-height:125%;font-family:sans-serif;letter-spacing:0px;word-spacing:0px;fill:#000000;fill-opacity:1;stroke:none;stroke-width:1px;stroke-linecap:butt;stroke-linejoin:miter;stroke-opacity:1"
       x="220.43211"
       y="384.95477"
       id="text4222"
       sodipodi:linespacing="125%"
       transform="scale(0.99388691,1.0061507)"><tspan
         sodipodi:role="line"
         id="tspan4224"
         x="220.43211"
         y="384.95477">Mondoñedo</tspan></text>
    <text
       xml:space="preserve"
       style="font-style:normal;font-weight:normal;font-size:15px;line-height:125%;font-family:sans-serif;letter-spacing:0px;word-spacing:0px;fill:#000000;fill-opacity:1;stroke:none;stroke-width:1px;stroke-linecap:butt;stroke-linejoin:miter;stroke-opacity:1"
       x="84.34774"
       y="338.18436"
       id="text4226"
       sodipodi:linespacing="125%"><tspan
         sodipodi:role="line"
         id="tspan4228"
         x="84.34774"
         y="338.18436">La Herrera</tspan></text>
    <path
       style="fill:#0000ff;fill-rule:evenodd;stroke:#0000ff;stroke-width:1px;stroke-linecap:butt;stroke-linejoin:miter;stroke-opacity:1"
       d="m 165.15994,355.60949 -3.03046,-6.06092 -7.57614,-0.50508 -4.54569,4.54569 -0.25253,5.05076 3.53553,4.29315 c 0,0 3.78807,1.76777 5.05076,1.76777 1.26269,0 7.82868,1.26269 8.83884,1.26269 1.01015,0 6.81853,-1.01015 6.81853,-1.01015 l 6.56599,-5.80838 -3.53554,-4.29315 -7.3236,0.50508 z"
       id="path4230"
       inkscape:connector-curvature="0" />
    <path
       style="fill:none;fill-rule:evenodd;stroke:#000000;stroke-width:3.9000001;stroke-linecap:butt;stroke-linejoin:miter;stroke-miterlimit:4;stroke-dasharray:3.9, 3.9;stroke-dashoffset:0;stroke-opacity:1"
       d="m 162.63456,568.49914 -2.02031,-8.08122 -18.18274,-26.26397 c 0,0 -2.02031,-18.18275 -1.01015,-22.22336 1.01015,-4.04061 1.01015,-12.12183 1.01015,-12.12183 0,0 -5.05076,-17.17259 -6.06092,-22.22335 -1.01015,-5.05077 -2.0203,-18.18275 -2.0203,-18.18275 l 2.0203,-13.13198 c 0,0 -2.0203,-8.08122 -7.07106,-13.13199 -5.05077,-5.05076 -9.09138,-11.11167 -9.09138,-11.11167 l 5.05077,-16.16244 c 0,0 2.0203,-8.08122 2.0203,-14.14214 0,-6.06092 -8.08122,-21.2132 -10.10152,-28.28427 -2.02031,-7.07107 -8.08123,-16.16244 -11.11168,-23.23351 -3.03046,-7.07107 -11.111681,-31.31473 -11.111681,-31.31473 l -9.091373,-16.16244 5.050763,-5.05076 16.162441,-3.03046 22.22336,15.15229 c 0,0 -4.04061,6.06091 5.05076,12.12183 9.09137,6.06091 13.13198,9.09137 18.18274,11.11168 5.05077,2.0203 10.10153,3.03045 17.1726,8.08122 7.07107,5.05076 26.26396,24.24366 26.26396,24.24366 0,0 0,11.11168 8.08122,16.16244 8.08122,5.05076 13.13199,7.07107 13.13199,7.07107 l 9.09137,-5.05077 c 0,0 2.02031,-7.07106 2.02031,-12.12183 0,-5.05076 -1.01016,-10.10152 -1.01016,-15.15228 0,-5.05077 -1.01015,-14.14214 5.05077,-20.20306 6.06091,-6.06091 0,-14.14213 0,-19.19289 0,-5.05077 -4.04061,-13.13199 0,-17.1726 4.04061,-4.04061 9.09137,-9.09137 13.13198,-10.10152 4.04061,-1.01016 2.0203,-11.11168 2.0203,-11.11168 0,0 -17.17259,-5.05076 -5.05076,-7.07107 12.12183,-2.0203 17.17259,-4.04061 24.24366,-11.11168 7.07107,-7.07106 15.15229,-18.18274 19.1929,-22.22335 4.04061,-4.04061 9.09137,-5.05077 9.09137,-5.05077 l 14.14214,6.06092 -4.04061,24.24366 9.09137,8.08122 6.06092,14.14214 8.08122,13.13198 c 0,0 4.04061,10.10153 7.07107,16.16244 3.03045,6.06092 8.08122,17.17259 8.08122,17.17259 l 16.16244,6.06092 24.24366,4.04061 19.1929,8.08122 32.32488,0 14.14213,-3.03046 11.11168,7.07107 7.07107,12.12183 7.07107,12.12183 -2.27285,5.05076 -6.81853,4.54569 -2.27284,5.05076 -6.56599,9.09138 -1.51523,5.80837 2.52538,4.79823 9.09137,5.55584 2.02031,-5.55584 c 0,0 5.3033,0.75761 6.31345,-1.26269 1.01016,-2.02031 6.31346,-8.33376 6.31346,-8.33376 l 2.0203,7.07107 0,4.54568 c 0,0 4.54569,-1.26269 5.80838,-2.0203 1.26269,-0.75762 7.57614,-4.29315 7.57614,-4.29315 l 3.283,-3.283 -5.55584,-3.53553 c 0,0 -3.53553,-2.02031 -1.26269,-4.79823 2.27284,-2.77791 6.31345,-5.05076 6.31345,-5.05076 l 5.55584,5.05076 c 0,0 3.03046,6.566 3.03046,7.82869 0,1.26269 1.01015,5.05076 -0.75762,6.31345 -1.76776,1.26269 -12.37436,5.55584 -12.37436,5.55584 l -4.29315,6.81853 -5.55584,3.53553 -9.59645,-4.79822 -4.79823,2.52538 -1.76776,5.80838 c 0,0 2.27284,4.29315 3.53553,4.29315 1.26269,0 11.36422,1.76776 11.36422,1.76776 l 9.34391,3.03046 5.55584,1.76777 0.25254,5.05076 2.52538,2.27284 -1.51523,2.77792 -6.31345,0.25254 -3.53554,10.85914 -9.09137,-2.27284 -1.76777,6.81853 -9.34391,4.54568 c 0,0 -6.31345,-2.52538 -8.5863,-1.76776 -2.27284,0.75761 -8.58629,4.79822 -8.58629,4.79822 0,0 -7.82869,-4.29315 -12.37437,6.06092 -4.54569,10.35406 -14.14214,14.39467 -14.14214,14.39467 l -2.52538,-5.80838 5.80838,-8.83883 -19.95051,0.25254 c 0,0 -4.79823,-8.08122 -6.81853,-7.07107 -2.02031,1.01015 -18.43529,14.39467 -19.44544,14.89975 -1.01015,0.50507 -9.09137,7.82868 -9.09137,7.82868 l -5.22835,0.93796 -8.57142,-0.71428 4.28571,11.42857 -8.57143,5.71429 -12.14286,1.42857 -4.28571,-7.14286 -15,-4.28571 -7.14286,3.57142 15,13.57143 2.85715,12.14286 c 0,0 -10.71429,2.14286 -7.14286,6.42857 3.57143,4.28572 7.85714,11.42857 7.85714,11.42857 l -20,-6.42857 -13.57143,-10 c 0,0 -7.14285,0.71429 -11.42857,1.42857 -4.28571,0.71429 -20.71428,0.71429 -20.71428,0.71429 l -7.14286,5 -15.71429,17.85714 -5.71428,8.57143 -12.85715,-12.14286 -7.85714,-4.28571 -14.28571,8.57143 c 0,0 -8.57143,7.14285 -8.57143,10 0,2.85714 -12.85714,9.28571 -12.85714,9.28571 L 170,570.21935 Z"
       id="path4173"
       inkscape:connector-curvature="0" />
    <path
       style="fill:#0000ff;fill-rule:evenodd;stroke:#0000ff;stroke-width:1px;stroke-linecap:butt;stroke-linejoin:miter;stroke-opacity:1"
       d="m 313.80511,315.01693 16.26223,14.07605 10.60661,4.29315 9.34391,-4.29315 13.63706,-3.78807 15.15228,-1.01015 13.13199,-3.78808 9.09137,-1.51522 7.57615,-5.3033 c 0,0 6.56599,-3.03046 7.82868,-3.53554 1.26269,-0.50508 10.35406,-2.27284 10.35406,-2.27284 l 5.80838,-4.04061 -0.25254,-9.59645 -3.03046,-4.04061 8.33376,-1.01015 c 0,0 4.29315,6.81853 4.29315,8.08122 0,1.26269 1.51523,8.08122 1.51523,9.34391 0,1.26269 -1.76777,9.34391 -1.76777,9.34391 l -9.09137,0 -13.13199,-3.03046 c 0,0 -9.84898,3.53553 -10.6066,4.54569 -0.75761,1.01015 -9.09137,5.80837 -9.84898,6.81853 -0.75762,1.01015 -12.12183,3.28299 -12.12183,3.28299 l -11.8693,1.51523 -11.86929,1.26269 -10.85914,2.02031 c 0,0 -8.33376,0.75761 -9.34391,1.51523 -1.01015,0.75761 -3.03046,2.0203 -3.03046,2.0203 l -8.83883,-2.0203 -6.56599,-6.06092 -3.78808,-5.3033 z"
       id="path4232"
       inkscape:connector-curvature="0"
       sodipodi:nodetypes="cccccccccscccccsscccssccccsccccc" />
    <path
       style="fill:none;fill-rule:evenodd;stroke:#ffff00;stroke-width:1;stroke-linecap:butt;stroke-linejoin:miter;stroke-miterlimit:4;stroke-dasharray:3, 1;stroke-dashoffset:0;stroke-opacity:1"
       d="m 265.10191,335.09076 7.1342,-5.3033 c 0,0 2.52538,-3.09359 2.84106,-3.21986 0.31567,-0.12627 3.59866,-2.39911 4.29314,-2.65165 0.69448,-0.25254 6.12405,-4.16688 7.00794,-4.29315 0.88388,-0.12627 7.57614,-6.81853 8.01808,-7.32361 0.44194,-0.50507 5.1139,-4.79822 5.68211,-4.92449 0.56821,-0.12627 7.82868,-5.80838 8.20749,-5.99778 0.37881,-0.1894 5.17703,-3.34613 5.17703,-3.34613 l 2.90419,-1.45209 7.19734,-1.38896"
       id="path4253"
       inkscape:connector-curvature="0" />
    <path
       style="fill:none;fill-rule:evenodd;stroke:#ffff00;stroke-width:1;stroke-linecap:butt;stroke-linejoin:miter;stroke-miterlimit:4;stroke-dasharray:4, 1;stroke-dashoffset:0;stroke-opacity:1"
       d="m 269.52133,296.64183 5.61897,4.92449 8.83883,6.25032 23.80172,17.10946 7.19734,4.98763 10.29093,6.56599 -5.80838,-2.0203 -8.7757,-3.283 -4.60882,-0.0631 -9.97525,-0.44195 c 0,0 -9.78586,-1.45209 -10.29093,-1.57836 -0.50508,-0.12627 -4.04061,-1.13642 -4.29315,-1.19956 -0.25254,-0.0631 -6.06092,-1.64149 -6.37659,-1.8309 -0.31567,-0.1894 -3.15673,-2.71478 -3.34613,-2.96732 -0.1894,-0.25254 -3.283,-5.93465 -3.4724,-6.50286 -0.1894,-0.56821 -2.84105,-8.83883 -2.84105,-8.83883 l -0.82075,-2.84106 c 0,0 -0.25254,-4.54568 -0.31568,-4.92449 -0.0631,-0.37881 0.25941,-4.07576 0.25941,-4.07576 l -1.20642,-4.57367"
       id="path4255"
       inkscape:connector-curvature="0" />
    <path
       style="fill:none;fill-rule:evenodd;stroke:#ffff00;stroke-width:1;stroke-linecap:butt;stroke-linejoin:miter;stroke-miterlimit:4;stroke-dasharray:4, 1;stroke-dashoffset:0;stroke-opacity:1"
       d="m 301.40427,330.60821 4.29314,-2.02031 5.17704,-3.15672 c 0,0 6.06091,-4.41942 6.69226,-4.67196 0.63134,-0.25254 6.69226,-4.54568 6.69226,-4.54568 l 4.79822,-3.91434 1.13642,-1.01016"
       id="path4257"
       inkscape:connector-curvature="0" />
    <rect
       style="opacity:1;fill:none;fill-opacity:0.40740739;fill-rule:nonzero;stroke:#d45500;stroke-width:0.9;stroke-linecap:round;stroke-linejoin:round;stroke-miterlimit:4;stroke-dasharray:1.8,0.9;stroke-dashoffset:0;stroke-opacity:1"
       id="rect4245"
       width="64.636246"
       height="41.10775"
       x="265.74008"
       y="296.16473" />
    <text
       xml:space="preserve"
       style="font-style:normal;font-weight:normal;font-size:15px;line-height:125%;font-family:sans-serif;letter-spacing:0px;word-spacing:0px;fill:#000000;fill-opacity:1;stroke:none;stroke-width:1px;stroke-linecap:butt;stroke-linejoin:miter;stroke-opacity:1"
       x="510.12704"
       y="415.96609"
       id="text4191"
       sodipodi:linespacing="125%"><tspan
         sodipodi:role="line"
         id="tspan4193"
         x="510.12704"
         y="415.96609">Fontibon</tspan></text>
    <circle
       style="opacity:1;fill:#ff0000;fill-opacity:1;fill-rule:nonzero;stroke:#010000;stroke-width:1.52013493;stroke-linecap:round;stroke-linejoin:round;stroke-miterlimit:4;stroke-dasharray:none;stroke-dashoffset:0;stroke-opacity:1"
       id="prueba2"
       cx="294.71295"
       cy="319.02304"
       r="0.23993252"
       onclick="prueba2"
       onmouseover="prueba2"
       onmouseout="prueba2"
       onmousedown="prueba2"
       onmouseup="prueba2"
       onmousemove="prueba2"
       onfocusin="prueba2"
       onfocusout="prueba2"
       onload="prueba2"
       inkscape:label="prueba2">
      <desc
         id="desc4170">prueba2</desc>
      <title
         id="title4168">prueba2</title>
    </circle>

  <circle
    id = "punto">
  </circle>    


  </g>
</svg>
