<?xml version="1.0" encoding="UTF-8" standalone="no"?>
<!-- Created with Inkscape (http://www.inkscape.org/) -->

<svg
   xmlns:dc="http://purl.org/dc/elements/1.1/"
   xmlns:cc="http://creativecommons.org/ns#"
   xmlns:rdf="http://www.w3.org/1999/02/22-rdf-syntax-ns#"
   xmlns:svg="http://www.w3.org/2000/svg"
   xmlns="http://www.w3.org/2000/svg"
   xmlns:sodipodi="http://sodipodi.sourceforge.net/DTD/sodipodi-0.dtd"
   xmlns:inkscape="http://www.inkscape.org/namespaces/inkscape"
   width="203.37071mm"
   height="169.49965mm"
   viewBox="0 0 720.60489 600.5893"
   id="svg2"
   version="1.1"
   inkscape:version="0.91 r13725"
   sodipodi:docname="drawing.svg">
  <defs
     id="defs4" />
  <sodipodi:namedview
     id="base"
     pagecolor="#ffffff"
     bordercolor="#666666"
     borderopacity="1.0"
     inkscape:pageopacity="0.0"
     inkscape:pageshadow="2"
     inkscape:zoom="1.2471084"
     inkscape:cx="360.30244"
     inkscape:cy="300.29465"
     inkscape:document-units="px"
     inkscape:current-layer="layer1"
     showgrid="false"
     fit-margin-top="0"
     fit-margin-left="0"
     fit-margin-right="0"
     fit-margin-bottom="0"
     inkscape:window-width="1280"
     inkscape:window-height="960"
     inkscape:window-x="0"
     inkscape:window-y="27"
     inkscape:window-maximized="1" />
  <metadata
     id="metadata7">
    <rdf:RDF>
      <cc:Work
         rdf:about="">
        <dc:format>image/svg+xml</dc:format>
        <dc:type
           rdf:resource="http://purl.org/dc/dcmitype/StillImage" />
        <dc:title />
      </cc:Work>
    </rdf:RDF>
  </metadata>
  <g
     inkscape:label="Capa 1"
     inkscape:groupmode="layer"
     id="layer1"
     transform="translate(-7.9122809,-122.14876)">
    <path
       style="fill:#de8787;fill-rule:evenodd;stroke:#000000;stroke-width:1px;stroke-linecap:butt;stroke-linejoin:miter;stroke-opacity:1"
       d="M 225.75274,401.70999 209.27139,365.16438 188.49056,345.81671 126.86464,302.82188 89.602455,276.30841 c 0,0 -17.914512,-13.61503 -19.347673,-16.48136 -1.433161,-2.86632 -15.76477,-25.08031 -15.76477,-25.08031 L 37.29208,231.88042 13.644925,225.43119 7.9122809,249.07835 c 0,0 5.7326441,35.11244 6.4492241,37.97876 0.716581,2.86632 7.882385,35.11245 9.315546,38.69535 1.433161,3.5829 2.866322,10.7487 4.299483,13.61503 1.433161,2.86632 5.016063,12.89844 6.449224,15.76477 1.433161,2.86632 10.032127,8.59896 12.898449,11.46528 2.866322,2.86633 15.76477,16.48136 15.76477,16.48136 0,0 4.299483,17.91451 5.016063,20.78083 0.716581,2.86632 5.016064,22.93057 5.016064,22.93057 0,0 -4.299483,17.19793 -5.732644,20.06426 -1.433161,2.86632 -21.497414,22.93057 -21.497414,25.79689 0,2.86633 -5.016063,25.7969 -5.016063,28.66322 0,2.86632 -0.716581,11.46529 2.866321,15.04819 3.582903,3.5829 25.080317,-13.61503 25.080317,-13.61503 0,0 13.615029,-5.01606 17.197931,-1.43316 3.582903,3.5829 -1.433161,21.49742 -2.149741,24.36374 -0.716581,2.86632 -9.315546,30.81296 -9.315546,33.67928 0,2.86632 3.582902,31.52954 4.299482,34.39586 0.716581,2.86632 3.582903,25.08032 3.582903,27.94664 0,2.86632 -1.433161,12.18187 -1.433161,15.04819 0,2.86632 12.181868,24.36374 14.331609,27.23006 2.149742,2.86632 10.032122,7.88238 11.465292,11.46529 1.43316,3.5829 10.03212,22.93057 12.89844,25.79689 2.86633,2.86633 20.78084,7.16581 24.36374,9.31555 3.5829,2.14974 18.63109,7.1658 22.21399,7.88238 3.58291,0.71659 20.78084,-0.71658 23.64716,-2.14974 2.86632,-1.43316 17.19793,-20.78083 25.08032,-17.19793 7.88238,3.5829 21.49741,10.74871 23.64715,13.61503 2.14974,2.86632 13.61503,7.88239 13.61503,7.88239 0,0 19.34767,-7.88239 22.21399,-10.74871 2.86633,-2.86632 25.7969,-32.24612 27.23006,-35.11244 1.43316,-2.86633 4.29949,-25.7969 5.73265,-28.66322 1.43316,-2.86632 3.5829,-12.89845 3.5829,-16.48135 0,-3.58291 -20.78083,-38.69535 -22.214,-42.27825 -1.43316,-3.5829 -10.7487,-10.74871 -12.18186,-14.33161 -1.43316,-3.5829 -12.18187,-25.7969 -12.18187,-29.3798 0,-3.5829 -9.31555,-22.93057 -10.03213,-25.7969 -0.71658,-2.86632 -18.63109,-85.27307 -19.34767,-88.85597 -0.71658,-3.58291 -7.16581,-22.214 -7.16581,-22.214 z"
       id="path3338"
       inkscape:connector-curvature="0" />
    <path
       style="fill:#ff6600;fill-rule:evenodd;stroke:#000000;stroke-width:1px;stroke-linecap:butt;stroke-linejoin:miter;stroke-opacity:1"
       d="m 230.76881,402.42657 c 0,0 -8.59897,-13.61503 -4.29949,-14.33161 4.29949,-0.71658 20.06426,-18.63109 22.93058,-21.49742 2.86632,-2.86632 21.49741,-15.76477 24.36373,-17.19793 2.86633,-1.43316 17.19794,-14.33161 20.06426,-15.76477 2.86632,-1.43316 28.66322,-15.76477 31.52954,-17.19793 2.86632,-1.43316 16.48135,-13.61503 16.48135,-13.61503 l 18.63109,-2.86632 c 0,0 21.49742,5.01606 24.36374,7.16581 2.86632,2.14974 19.34767,9.31554 22.21399,10.7487 2.86632,1.43316 22.93058,8.59897 26.51348,9.31555 3.5829,0.71658 25.7969,0.71658 28.66322,0.71658 2.86632,0 22.93057,-3.5829 25.79689,-3.5829 2.86633,0 17.19794,-2.14974 17.19794,-2.14974 l 0.71658,20.06425 15.76477,14.33161 c 0,0 0.71658,33.67928 0.71658,37.26218 0,3.5829 0,34.39586 0,37.26219 0,2.86632 -10.74871,82.40675 -10.74871,82.40675 l -10.74871,8.59897 1.43316,15.04819 7.16581,20.06425 0,8.59896 -18.63109,13.61503 -10.74871,-4.29948 c 0,0 -7.16581,5.73264 -6.44922,8.59897 0.71658,2.86632 7.1658,15.04819 7.1658,15.04819 l -17.91451,5.73264 -16.48135,1.43316 c 0,0 -12.89845,-10.03213 -12.89845,-13.61503 0,-3.5829 -8.59897,-13.61503 -11.46529,-13.61503 -2.86632,0 -26.51348,-1.43316 -26.51348,-1.43316 0,0 -2.86632,10.74871 -2.86632,13.61503 0,2.86632 10.74871,19.34767 10.74871,19.34767 l 25.08032,11.46529 1.43316,13.61503 c 0,0 -11.46529,10.74871 -8.59897,15.76477 2.86632,5.01606 3.5829,7.88239 3.5829,7.88239 l -22.21399,0.71658 c 0,0 -12.18187,4.29948 -14.33161,-1.43316 -2.14974,-5.73265 -8.59897,-15.76477 -11.46529,-15.76477 -2.86632,0 -24.36373,7.1658 -27.23006,7.1658 -2.86632,0 -27.94663,0 -27.94663,0 l -10.74871,0.71658 4.29948,-20.78083 -23.64715,-42.27825 -12.89845,-20.78083 -26.51348,-70.22489 -17.19793,-77.39069 z"
       id="path3340"
       inkscape:connector-curvature="0" />
    <path
       style="fill:#00ffff;fill-rule:evenodd;stroke:#000000;stroke-width:1px;stroke-linecap:butt;stroke-linejoin:miter;stroke-opacity:1"
       d="m 229.33565,379.49599 24.36373,-20.78083 c 0,0 11.46529,-10.74871 15.04819,-12.89845 3.5829,-2.14974 9.31555,-9.31555 15.04819,-12.89845 5.73264,-3.5829 12.89845,-9.31554 15.76477,-11.46529 2.86632,-2.14974 20.78083,-13.61502 23.64716,-15.04819 2.86632,-1.43316 12.89845,-5.73264 15.76477,-7.1658 2.86632,-1.43316 32.73685,-1.96173 32.73685,-1.96173 l 16.55584,4.78902 -74.6367,-60.19157 -38.58182,-29.11611 -27.07989,16.2555 c 0,0 -10.03213,10.74871 -5.73265,34.39587 4.29949,23.64715 10.74871,27.23005 10.74871,27.23005 l -10.74871,25.08032 -10.03212,9.31555 5.73264,14.33161 -5.01606,12.18186 2.14974,17.91452 z"
       id="path3342"
       inkscape:connector-curvature="0"
       sodipodi:nodetypes="ccssssscccccsccccccc" />
    <path
       style="fill:#ffff00;fill-rule:evenodd;stroke:#000000;stroke-width:1px;stroke-linecap:butt;stroke-linejoin:miter;stroke-opacity:1"
       d="m 362.61961,274.87524 -98.8881,-73.80778 85.27307,-78.10728 32.24612,20.06426 -7.88238,18.63109 5.73264,2.86632 12.89845,-2.86632 2.14974,14.33161 -7.1658,13.61503 -1.43316,11.46529 13.61503,5.01606 7.1658,-0.71658 6.44923,15.04819 5.73264,14.33161 5.73264,5.01606 -59.47618,36.54561 z"
       id="path3344"
       inkscape:connector-curvature="0" />
    <path
       style="fill:#ff0000;fill-rule:evenodd;stroke:#000000;stroke-width:1px;stroke-linecap:butt;stroke-linejoin:miter;stroke-opacity:1"
       d="m 366.20251,279.17473 40.84509,30.09638 30.09638,13.61503 41.56167,0 26.51348,-7.16581 -0.71658,-12.89845 -40.12851,0 -22.214,-29.3798 -10.03212,-3.5829 -3.5829,-9.31555 1.43316,-10.03212 -6.44923,-8.59897 -34.39586,22.93058 z"
       id="path3346"
       inkscape:connector-curvature="0" />
    <path
       style="fill:#00ff00;fill-rule:evenodd;stroke:#000000;stroke-width:1px;stroke-linecap:butt;stroke-linejoin:miter;stroke-opacity:1"
       d="m 508.80203,319.30323 0.71658,16.48135 15.76477,22.93058 0.71658,97.45494 -9.31555,54.46012 -8.59896,10.03213 -2.86632,5.01606 7.1658,34.39586 c 0,0 19.34767,-6.44922 21.49741,-10.03213 2.14975,-3.5829 9.31555,-16.48135 9.31555,-16.48135 l 32.9627,10.74871 17.19793,-0.71658 -9.31554,25.7969 10.7487,-0.71658 c 0,0 15.04819,-20.78084 18.6311,-22.93058 3.5829,-2.14974 40.84508,-17.19793 40.84508,-17.19793 l 12.89845,-10.03213 6.44923,2.86633 7.88238,-10.03213 12.89845,0.71658 7.88239,-15.76477 5.73264,-15.76477 c 0,0 0.71658,-7.88239 -4.29948,-8.59897 -5.01607,-0.71658 -30.09638,-2.86632 -30.09638,-2.86632 l -19.34768,-17.19793 -2.86632,-15.04819 -12.18187,-10.74871 c 0,0 2.14975,-15.04819 2.86633,-17.91451 0.71658,-2.86632 10.03212,-22.93057 12.89844,-23.64715 2.86633,-0.71658 12.89845,-9.31555 12.89845,-9.31555 l 1.43316,-16.48135 c 0,0 -13.61503,-9.31555 -13.61503,-12.18187 0,-2.86632 -4.29948,-17.91451 -4.29948,-17.91451 l -15.04819,6.44922 -13.61503,-1.43316 -14.33161,-17.91451 -20.06425,-7.88238 z"
       id="path3348"
       inkscape:connector-curvature="0" />
    <path
       style="fill:#808000;fill-rule:evenodd;stroke:#000000;stroke-width:1px;stroke-linecap:butt;stroke-linejoin:miter;stroke-opacity:1"
       d="m 655.61618,437.11711 c 0,0 1.86493,-5.59478 1.86493,-6.45552 0,-0.86073 0.57382,-8.4639 0.57382,-8.4639 l 3.15604,3.72985 1.14765,5.30788 c 0,0 1.00419,1.86493 2.72566,0.86073 1.72147,-1.00419 4.59059,-3.01257 5.02096,-3.5864 0.43037,-0.57382 2.72566,-3.5864 3.29949,-4.16022 0.57382,-0.57383 3.87331,-4.16023 4.44713,-4.30368 0.57383,-0.14346 3.29949,-0.71728 3.87332,-0.71728 0.57382,0 2.72566,0.71728 2.86912,1.2911 0.14345,0.57383 0,5.59479 0,5.59479 l 1.2911,4.73405 c 0,0 3.15603,0.57382 3.72986,0.57382 0.57382,0 5.02096,-1.86493 5.59478,-2.2953 0.57383,-0.43036 3.01258,-3.87331 3.72986,-4.16022 0.71728,-0.28691 4.73405,-3.01258 5.30787,-3.29949 0.57383,-0.28691 3.01258,-2.00838 3.5864,-2.43875 0.57383,-0.43037 3.01258,-5.8817 3.01258,-5.8817 l -1.57802,-1.86493 -3.44294,-1.14764 c 0,0 -2.00839,-2.43876 -2.00839,-3.01258 0,-0.57382 -2.58221,-4.30368 -2.43875,-4.87751 0.14346,-0.57382 2.43875,-3.44294 3.01258,-3.87331 0.57382,-0.43037 3.5864,-1.86493 4.30368,-2.29529 0.71728,-0.43037 2.43875,-1.29111 3.01257,-1.57802 0.57383,-0.28691 5.8817,1.00419 5.8817,1.00419 l 2.43875,5.8817 c 0,0 2.2953,3.01257 2.72567,3.72986 0.43037,0.71728 2.29529,4.01676 2.72566,4.59059 0.43037,0.57382 2.15184,3.5864 2.15184,3.5864 0,0 0.14346,2.86912 0.14346,3.44294 0,0.57383 -1.43456,2.86912 -2.00839,3.15603 -0.57382,0.28692 -6.31206,3.15604 -6.31206,3.15604 0,0 -4.73405,1.00419 -5.45133,1.2911 -0.71728,0.28691 -9.18118,3.87331 -9.18118,3.87331 l -4.73405,3.72986 c 0,0 -3.5864,6.16861 -3.5864,6.74243 0,0.57383 -0.86074,6.88589 -0.86074,7.45971 0,0.57383 -2.43875,3.72986 -2.43875,3.72986 0,0 -4.01677,2.72567 -4.59059,2.15184 -0.57383,-0.57382 -2.43876,-4.59059 -2.43876,-5.16441 0,-0.57383 -1.43456,-3.87332 -1.43456,-3.87332 l -0.86073,-1.57801 c 0,0 -7.02935,1.14764 -7.60317,1.2911 -0.57383,0.14346 -5.73824,2.00838 -5.73824,2.00838 l -3.72986,2.58221 c 0,0 -3.87331,1.86493 -3.87331,2.43876 0,0.57382 -1.86493,3.44294 -1.86493,3.44294 0,0 -1.43456,0.86074 -1.57802,0.28691 -0.14345,-0.57382 -2.5822,-8.03354 -2.5822,-8.03354 0,0 -0.86074,-4.01676 -0.86074,-4.59059 0,-0.57382 -0.43037,-4.01677 -0.43037,-4.01677 z"
       id="path3350"
       inkscape:connector-curvature="0" />
    <text
       xml:space="preserve"
       style="font-style:normal;font-weight:normal;font-size:15px;line-height:125%;font-family:sans-serif;letter-spacing:0px;word-spacing:0px;fill:#000000;fill-opacity:1;stroke:none;stroke-width:1px;stroke-linecap:butt;stroke-linejoin:miter;stroke-opacity:1"
       x="306.2023"
       y="446.09811"
       id="text3352"
       sodipodi:linespacing="125%"><tspan
         sodipodi:role="line"
         id="tspan3354"
         x="306.2023"
         y="446.09811">VEREDA SAN JOSE</tspan></text>
    <text
       xml:space="preserve"
       style="font-style:normal;font-weight:normal;font-size:15px;line-height:125%;font-family:sans-serif;letter-spacing:0px;word-spacing:0px;fill:#000000;fill-opacity:1;stroke:none;stroke-width:1px;stroke-linecap:butt;stroke-linejoin:miter;stroke-opacity:1"
       x="256.48727"
       y="197.5231"
       id="text3356"
       sodipodi:linespacing="125%"><tspan
         sodipodi:role="line"
         id="tspan3358"
         x="256.48727"
         y="197.5231">VEREDA SIETE TROJES</tspan></text>
    <text
       xml:space="preserve"
       style="font-style:normal;font-weight:normal;font-size:15px;line-height:125%;font-family:sans-serif;letter-spacing:0px;word-spacing:0px;fill:#000000;fill-opacity:1;stroke:none;stroke-width:1px;stroke-linecap:butt;stroke-linejoin:miter;stroke-opacity:1"
       x="400.8212"
       y="277.70859"
       id="text3360"
       sodipodi:linespacing="125%"><tspan
         sodipodi:role="line"
         id="tspan3362"
         x="400.8212"
         y="277.70859">VEREDA  SERREZUELA</tspan></text>
    <text
       xml:space="preserve"
       style="font-style:normal;font-weight:normal;font-size:15px;line-height:125%;font-family:sans-serif;letter-spacing:0px;word-spacing:0px;fill:#000000;fill-opacity:1;stroke:none;stroke-width:1px;stroke-linecap:butt;stroke-linejoin:miter;stroke-opacity:1"
       x="207.57414"
       y="286.52899"
       id="text3364"
       sodipodi:linespacing="125%"><tspan
         sodipodi:role="line"
         id="tspan3366"
         x="207.57414"
         y="286.52899">VEREDA SAN JOSE</tspan></text>
    <text
       xml:space="preserve"
       style="font-style:normal;font-weight:normal;font-size:15px;line-height:125%;font-family:sans-serif;letter-spacing:0px;word-spacing:0px;fill:#000000;fill-opacity:1;stroke:none;stroke-width:1px;stroke-linecap:butt;stroke-linejoin:miter;stroke-opacity:1"
       x="59.230995"
       y="480.57788"
       id="text3368"
       sodipodi:linespacing="125%"><tspan
         sodipodi:role="line"
         id="tspan3370"
         x="59.230995"
         y="480.57788">VEREDA BALSILLAS</tspan></text>
    <text
       xml:space="preserve"
       style="font-style:normal;font-weight:normal;font-size:15px;line-height:125%;font-family:sans-serif;letter-spacing:0px;word-spacing:0px;fill:#000000;fill-opacity:1;stroke:none;stroke-width:1px;stroke-linecap:butt;stroke-linejoin:miter;stroke-opacity:1"
       x="510.67532"
       y="490.20013"
       id="text3372"
       sodipodi:linespacing="125%"><tspan
         sodipodi:role="line"
         id="tspan3374"
         x="510.67532"
         y="490.20013">VEREDA SAN FRANCISCO</tspan></text>
  </g>
</svg>
